<?xml version="1.0" standalone="no"?>
<!DOCTYPE svg PUBLIC "-//W3C//DTD SVG 20010904//EN"
 "http://www.w3.org/TR/2001/REC-SVG-20010904/DTD/svg10.dtd">
<svg version="1.0" xmlns="http://www.w3.org/2000/svg"
 width="714.000000pt" height="714.000000pt" viewBox="0 0 714.000000 714.000000"
 preserveAspectRatio="xMidYMid meet">

<g transform="translate(0.000000,714.000000) scale(0.100000,-0.100000)"
fill="#000000" stroke="none">
<path d="M3320 5510 c0 -6 -33 -10 -80 -10 -47 0 -80 -4 -80 -10 0 -5 -18 -10
-40 -10 -22 0 -40 -4 -40 -10 0 -5 -18 -10 -40 -10 -22 0 -40 -4 -40 -10 0 -5
-13 -10 -30 -10 -16 0 -30 -4 -30 -10 0 -5 -18 -10 -40 -10 -22 0 -40 -4 -40
-10 0 -5 -9 -10 -20 -10 -11 0 -20 -4 -20 -10 0 -5 -13 -10 -30 -10 -16 0 -30
-4 -30 -10 0 -5 -9 -10 -20 -10 -11 0 -20 -4 -20 -10 0 -5 -9 -10 -20 -10 -11
0 -20 -4 -20 -10 0 -5 -9 -10 -20 -10 -11 0 -20 -4 -20 -10 0 -5 -9 -10 -20
-10 -11 0 -20 -4 -20 -10 0 -5 -9 -10 -20 -10 -11 0 -20 -4 -20 -10 0 -5 -8
-10 -18 -10 -10 0 -24 -9 -32 -20 -8 -11 -21 -20 -30 -20 -9 0 -22 -9 -30 -20
-8 -11 -21 -20 -30 -20 -9 0 -22 -9 -30 -20 -8 -11 -21 -20 -28 -20 -7 0 -31
-18 -52 -40 -21 -22 -43 -40 -49 -40 -15 0 -201 -186 -201 -201 0 -6 -18 -28
-40 -49 -22 -21 -40 -44 -40 -50 0 -7 -13 -25 -30 -40 -16 -15 -30 -34 -30
-42 0 -7 -9 -20 -20 -28 -11 -8 -20 -22 -20 -32 0 -10 -4 -18 -10 -18 -5 0
-10 -9 -10 -20 0 -11 -4 -20 -10 -20 -5 0 -10 -8 -10 -18 0 -10 -9 -24 -20
-32 -11 -8 -20 -22 -20 -32 0 -10 -4 -18 -10 -18 -5 0 -10 -9 -10 -20 0 -11
-4 -20 -10 -20 -5 0 -10 -13 -10 -30 0 -16 -4 -30 -10 -30 -5 0 -10 -9 -10
-20 0 -11 -4 -20 -10 -20 -5 0 -10 -9 -10 -20 0 -11 -4 -20 -10 -20 -5 0 -10
-13 -10 -30 0 -16 -4 -30 -10 -30 -5 0 -10 -13 -10 -30 0 -16 -4 -30 -10 -30
-5 0 -10 -18 -10 -40 0 -22 -4 -40 -10 -40 -5 0 -10 -18 -10 -40 0 -22 -4 -40
-10 -40 -5 0 -10 -22 -10 -50 0 -27 -4 -50 -10 -50 -6 0 -10 -33 -10 -80 0
-47 -4 -80 -10 -80 -6 0 -10 -63 -10 -170 0 -107 4 -170 10 -170 6 0 10 -25
10 -56 0 -64 14 -84 60 -84 49 0 60 18 60 104 0 44 -4 76 -10 76 -6 0 -10 50
-10 130 0 80 4 130 10 130 6 0 10 33 10 80 0 47 4 80 10 80 6 0 10 27 10 60 0
33 4 60 10 60 6 0 10 18 10 40 0 22 5 40 10 40 6 0 10 14 10 30 0 17 5 30 10
30 6 0 10 14 10 30 0 17 5 30 10 30 6 0 10 14 10 30 0 17 5 30 10 30 6 0 10
14 10 30 0 17 5 30 10 30 6 0 10 9 10 20 0 11 5 20 10 20 6 0 10 9 10 20 0 11
5 20 10 20 6 0 10 9 10 20 0 11 5 20 10 20 6 0 10 9 10 20 0 11 5 20 10 20 6
0 10 8 10 18 0 10 9 24 20 32 11 8 20 20 20 28 0 28 28 42 84 42 31 0 56 5 56
10 0 6 8 10 18 10 10 0 24 9 32 20 8 11 21 20 30 20 9 0 22 9 30 20 8 11 22
20 32 20 10 0 18 5 18 10 0 6 9 10 20 10 11 0 20 5 20 10 0 6 9 10 20 10 11 0
20 5 20 10 0 6 9 10 20 10 11 0 20 5 20 10 0 6 14 10 30 10 17 0 30 5 30 10 0
6 14 10 30 10 17 0 30 5 30 10 0 6 14 10 30 10 17 0 30 5 30 10 0 6 18 10 40
10 22 0 40 5 40 10 0 6 30 10 70 10 40 0 70 4 70 10 0 6 47 10 120 10 73 0
120 -4 120 -10 0 -6 30 -10 70 -10 40 0 70 -4 70 -10 0 -5 18 -10 40 -10 22 0
40 -4 40 -10 0 -5 12 -10 26 -10 14 0 32 -6 40 -14 16 -17 19 -66 4 -66 -5 0
-10 -9 -10 -20 0 -11 -4 -20 -10 -20 -5 0 -10 -9 -10 -20 0 -11 -4 -20 -10
-20 -5 0 -10 -9 -10 -20 0 -11 -4 -20 -10 -20 -5 0 -10 -9 -10 -20 0 -11 -4
-20 -10 -20 -5 0 -10 -9 -10 -20 0 -11 -4 -20 -10 -20 -5 0 -10 -9 -10 -20 0
-11 -4 -20 -10 -20 -5 0 -10 -9 -10 -20 0 -11 -4 -20 -10 -20 -5 0 -10 -9 -10
-20 0 -11 -4 -20 -10 -20 -5 0 -10 -9 -10 -20 0 -11 -4 -20 -10 -20 -5 0 -10
-8 -10 -18 0 -10 -9 -24 -20 -32 -11 -8 -20 -22 -20 -32 0 -10 -4 -18 -10 -18
-5 0 -10 -9 -10 -20 0 -11 -4 -20 -10 -20 -5 0 -10 -9 -10 -20 0 -11 -4 -20
-10 -20 -5 0 -10 -9 -10 -20 0 -11 -4 -20 -10 -20 -5 0 -10 -9 -10 -20 0 -11
-4 -20 -10 -20 -5 0 -10 -9 -10 -20 0 -11 -4 -20 -10 -20 -5 0 -10 -9 -10 -20
0 -11 -4 -20 -10 -20 -5 0 -10 -9 -10 -20 0 -11 -4 -20 -10 -20 -5 0 -10 -9
-10 -20 0 -11 -4 -20 -10 -20 -5 0 -10 -9 -10 -20 0 -11 -4 -20 -10 -20 -5 0
-10 -9 -10 -20 0 -11 -4 -20 -10 -20 -5 0 -10 -9 -10 -20 0 -11 -4 -20 -10
-20 -5 0 -10 -9 -10 -20 0 -11 -4 -20 -10 -20 -5 0 -10 -9 -10 -20 0 -11 -4
-20 -10 -20 -5 0 -10 -9 -10 -20 0 -11 -4 -20 -10 -20 -5 0 -10 -9 -10 -20 0
-11 -4 -20 -10 -20 -5 0 -10 -9 -10 -20 0 -11 -4 -20 -10 -20 -5 0 -10 -9 -10
-20 0 -11 -4 -20 -10 -20 -5 0 -10 -8 -10 -18 0 -10 -9 -24 -20 -32 -11 -8
-20 -20 -20 -28 0 -26 -28 -42 -74 -42 -44 0 -46 -1 -46 -30 0 -27 3 -30 30
-30 23 0 30 -4 30 -20 0 -13 -7 -20 -20 -20 -11 0 -20 -4 -20 -10 0 -5 -9 -10
-20 -10 -11 0 -20 -4 -20 -10 0 -5 -7 -10 -16 -10 -20 0 -44 -24 -44 -44 0 -9
-4 -16 -10 -16 -6 0 -10 -27 -10 -60 0 -33 4 -60 10 -60 6 0 10 -7 10 -15 0
-20 45 -65 65 -65 8 0 15 -4 15 -10 0 -6 27 -10 60 -10 33 0 60 4 60 10 0 6 7
10 15 10 20 0 65 45 65 65 0 8 5 15 10 15 6 0 10 23 10 50 0 28 -4 50 -10 50
-5 0 -10 7 -10 16 0 9 -14 29 -31 45 -27 26 -29 30 -16 44 9 8 21 15 27 15 16
0 60 -47 60 -65 0 -8 5 -15 10 -15 6 0 10 -33 10 -80 0 -47 -4 -80 -10 -80 -5
0 -10 -7 -10 -15 0 -26 -86 -105 -115 -105 -14 0 -25 -4 -25 -10 0 -5 -9 -10
-20 -10 -13 0 -20 -7 -20 -20 0 -17 7 -20 50 -20 28 0 50 5 50 10 0 6 7 10 15
10 20 0 125 105 125 125 0 8 5 15 10 15 6 0 10 37 10 90 0 53 -4 90 -10 90 -5
0 -10 9 -10 20 0 11 -4 20 -10 20 -5 0 -10 7 -10 16 0 8 -18 33 -40 54 -38 36
-52 70 -30 70 6 0 10 9 10 20 0 11 5 20 10 20 6 0 10 9 10 20 0 11 5 20 10 20
6 0 10 9 10 20 0 11 5 20 10 20 6 0 10 8 10 18 0 10 9 24 20 32 11 8 20 22 20
32 0 10 5 18 10 18 6 0 10 9 10 20 0 11 5 20 10 20 6 0 10 9 10 20 0 11 5 20
10 20 6 0 10 9 10 20 0 11 5 20 10 20 6 0 10 9 10 20 0 11 5 20 10 20 6 0 10
9 10 20 0 11 5 20 10 20 6 0 10 9 10 20 0 11 5 20 10 20 6 0 10 9 10 20 0 11
5 20 10 20 6 0 10 9 10 20 0 11 5 20 10 20 6 0 10 9 10 20 0 11 5 20 10 20 6
0 10 9 10 20 0 11 5 20 10 20 6 0 10 9 10 20 0 11 5 20 10 20 6 0 10 9 10 20
0 11 5 20 10 20 6 0 10 9 10 20 0 11 5 20 10 20 6 0 10 8 10 18 0 10 9 24 20
32 11 8 20 26 20 40 0 14 9 32 20 40 11 8 20 22 20 32 0 10 5 18 10 18 6 0 10
9 10 20 0 11 5 20 10 20 6 0 10 9 10 20 0 11 5 20 10 20 6 0 10 9 10 20 0 11
5 20 10 20 6 0 10 9 10 20 0 11 5 20 10 20 6 0 10 9 10 20 0 11 5 20 10 20 6
0 10 9 10 20 0 11 5 20 10 20 6 0 10 7 10 16 0 8 6 22 14 30 17 16 66 19 66 4
0 -5 9 -10 20 -10 11 0 20 -4 20 -10 0 -5 9 -10 20 -10 16 0 20 -7 20 -30 0
-16 -4 -30 -10 -30 -5 0 -10 -9 -10 -19 0 -11 -6 -21 -12 -23 -17 -6 14 -38
36 -38 9 0 16 -4 16 -10 0 -5 8 -10 18 -10 10 0 24 -9 32 -20 8 -11 21 -20 30
-20 9 0 22 -9 30 -20 8 -11 21 -20 28 -20 7 0 31 -18 52 -40 21 -22 43 -40 49
-40 15 0 101 -86 101 -101 0 -6 18 -28 40 -49 22 -21 40 -45 40 -52 0 -7 9
-20 20 -28 11 -8 20 -21 20 -30 0 -9 9 -22 20 -30 11 -8 20 -22 20 -32 0 -10
5 -18 10 -18 6 0 10 -9 10 -20 0 -11 5 -20 10 -20 6 0 10 -9 10 -20 0 -11 5
-20 10 -20 6 0 10 -9 10 -20 0 -11 5 -20 10 -20 6 0 10 -13 10 -30 0 -16 5
-30 10 -30 6 0 10 -13 10 -30 0 -16 5 -30 10 -30 6 0 10 -18 10 -40 0 -22 5
-40 10 -40 6 0 10 -18 10 -40 0 -22 5 -40 10 -40 6 0 10 -80 10 -220 0 -140
-4 -220 -10 -220 -5 0 -10 -18 -10 -40 0 -22 -4 -40 -10 -40 -5 0 -10 -18 -10
-40 0 -22 -4 -40 -10 -40 -5 0 -10 -13 -10 -30 0 -16 -4 -30 -10 -30 -5 0 -10
-9 -10 -20 0 -11 -4 -20 -10 -20 -5 0 -10 -13 -10 -30 0 -16 -4 -30 -10 -30
-5 0 -10 -8 -10 -18 0 -10 -9 -24 -20 -32 -11 -8 -20 -22 -20 -32 0 -10 -4
-18 -10 -18 -5 0 -10 -8 -10 -18 0 -10 -9 -24 -20 -32 -11 -8 -20 -21 -20 -30
0 -9 -9 -22 -20 -30 -11 -8 -20 -21 -20 -28 0 -7 -18 -31 -40 -52 -47 -45 -52
-70 -15 -70 38 0 75 -42 75 -85 0 -19 5 -35 10 -35 6 0 10 -13 10 -30 0 -16 5
-30 10 -30 6 0 10 -9 10 -20 0 -11 5 -20 10 -20 6 0 10 -9 10 -20 0 -13 7 -20
20 -20 11 0 20 -4 20 -10 0 -5 23 -10 50 -10 28 0 50 -4 50 -10 0 -5 23 -10
50 -10 28 0 50 -4 50 -10 0 -5 7 -10 16 -10 20 0 44 -24 44 -44 0 -9 5 -16 10
-16 6 0 10 -13 10 -30 0 -16 5 -30 10 -30 15 0 12 -29 -4 -46 -8 -8 -22 -14
-30 -14 -9 0 -16 -4 -16 -10 0 -5 -9 -10 -20 -10 -11 0 -20 -4 -20 -10 0 -5
-9 -10 -20 -10 -11 0 -20 -4 -20 -10 0 -5 -13 -10 -30 -10 -16 0 -30 -4 -30
-10 0 -5 -9 -10 -20 -10 -11 0 -20 -4 -20 -10 0 -5 -18 -10 -40 -10 -22 0 -40
-4 -40 -10 0 -5 -13 -10 -30 -10 -16 0 -30 -4 -30 -10 0 -5 -18 -10 -40 -10
-22 0 -40 -4 -40 -10 0 -6 -27 -10 -60 -10 -33 0 -60 -4 -60 -10 0 -6 -40 -10
-100 -10 -60 0 -100 -4 -100 -10 0 -6 -33 -10 -80 -10 -47 0 -80 4 -80 10 0 6
-40 10 -100 10 -60 0 -100 4 -100 10 0 6 -22 10 -50 10 -27 0 -50 5 -50 10 0
6 -22 10 -50 10 -27 0 -50 5 -50 10 0 6 -13 10 -30 10 -16 0 -30 5 -30 10 0 6
-13 10 -30 10 -16 0 -30 5 -30 10 0 6 -13 10 -30 10 -16 0 -30 5 -30 10 0 6
-13 10 -30 10 -16 0 -30 5 -30 10 0 6 -9 10 -20 10 -11 0 -20 5 -20 10 0 6 -9
10 -20 10 -11 0 -20 5 -20 10 0 6 -9 10 -20 10 -11 0 -20 5 -20 10 0 6 -9 10
-20 10 -11 0 -20 5 -20 10 0 6 -9 10 -20 10 -11 0 -20 5 -20 10 0 6 -8 10 -18
10 -10 0 -24 9 -32 20 -8 11 -21 20 -30 20 -9 0 -22 9 -30 20 -17 24 -74 27
-96 6 -22 -23 -17 -74 11 -101 13 -14 30 -25 37 -25 8 0 20 -9 28 -20 8 -11
22 -20 32 -20 10 0 18 -4 18 -10 0 -5 9 -10 20 -10 11 0 20 -4 20 -10 0 -5 9
-10 20 -10 11 0 20 -4 20 -10 0 -5 9 -10 20 -10 11 0 20 -4 20 -10 0 -5 9 -10
20 -10 11 0 20 -4 20 -10 0 -5 9 -10 20 -10 11 0 20 -4 20 -10 0 -5 9 -10 20
-10 11 0 20 -4 20 -10 0 -5 14 -10 30 -10 17 0 30 -4 30 -10 0 -5 14 -10 30
-10 17 0 30 -4 30 -10 0 -5 14 -10 30 -10 17 0 30 -4 30 -10 0 -5 18 -10 40
-10 22 0 40 -4 40 -10 0 -5 18 -10 40 -10 22 0 40 -4 40 -10 0 -6 27 -10 60
-10 33 0 60 -4 60 -10 0 -6 37 -10 90 -10 53 0 90 -4 90 -10 0 -6 43 -10 110
-10 67 0 110 4 110 10 0 6 37 10 90 10 53 0 90 4 90 10 0 6 27 10 60 10 33 0
60 4 60 10 0 6 18 10 40 10 22 0 40 5 40 10 0 6 18 10 40 10 22 0 40 5 40 10
0 6 14 10 30 10 17 0 30 5 30 10 0 6 14 10 30 10 17 0 30 5 30 10 0 6 14 10
30 10 17 0 30 5 30 10 0 6 9 10 20 10 11 0 20 5 20 10 0 6 9 10 20 10 11 0 20
5 20 10 0 6 9 10 20 10 11 0 20 5 20 10 0 6 9 10 20 10 11 0 20 5 20 10 0 6 9
10 20 10 11 0 20 5 20 10 0 6 9 10 20 10 11 0 20 5 20 10 0 6 8 10 18 10 10 0
24 9 32 20 8 11 21 20 30 20 9 0 22 9 30 20 8 11 21 20 30 20 9 0 22 9 30 20
8 11 20 20 28 20 7 0 35 23 62 50 27 28 54 50 59 50 15 0 181 166 181 181 0 6
18 28 40 49 22 21 40 44 40 50 0 7 14 25 30 40 17 15 30 34 30 42 0 7 9 20 20
28 11 8 20 22 20 32 0 10 5 18 10 18 6 0 10 9 10 20 0 11 5 20 10 20 6 0 10 8
10 18 0 10 9 24 20 32 11 8 20 22 20 32 0 10 5 18 10 18 6 0 10 9 10 20 0 11
5 20 10 20 6 0 10 14 10 30 0 17 5 30 10 30 6 0 10 9 10 20 0 11 5 20 10 20 6
0 10 14 10 30 0 17 5 30 10 30 6 0 10 14 10 30 0 17 5 30 10 30 6 0 10 14 10
30 0 17 5 30 10 30 6 0 10 18 10 40 0 22 5 40 10 40 6 0 10 18 10 40 0 22 5
40 10 40 6 0 10 30 10 70 0 40 4 70 10 70 6 0 10 87 10 240 0 153 -4 240 -10
240 -6 0 -10 27 -10 60 0 33 -4 60 -10 60 -5 0 -10 23 -10 50 0 28 -4 50 -10
50 -5 0 -10 18 -10 40 0 22 -4 40 -10 40 -5 0 -10 14 -10 30 0 17 -4 30 -10
30 -5 0 -10 14 -10 30 0 17 -4 30 -10 30 -5 0 -10 14 -10 30 0 17 -4 30 -10
30 -5 0 -10 9 -10 20 0 11 -4 20 -10 20 -5 0 -10 9 -10 20 0 11 -4 20 -10 20
-5 0 -10 9 -10 20 0 11 -4 20 -10 20 -5 0 -10 13 -10 28 0 16 -8 34 -20 42
-11 8 -20 22 -20 32 0 10 -4 18 -10 18 -5 0 -10 9 -10 20 0 11 -4 20 -10 20
-5 0 -10 8 -10 18 0 10 -9 24 -20 32 -11 8 -20 21 -20 30 0 9 -9 22 -20 30
-11 8 -20 21 -20 28 0 7 -18 31 -40 52 -22 21 -40 43 -40 49 0 15 -267 281
-281 281 -6 0 -24 14 -39 30 -15 17 -33 30 -40 30 -7 0 -25 14 -40 30 -15 17
-35 30 -44 30 -9 0 -16 5 -16 10 0 6 -8 10 -18 10 -10 0 -24 9 -32 20 -8 11
-22 20 -32 20 -10 0 -18 5 -18 10 0 6 -9 10 -20 10 -11 0 -20 5 -20 10 0 6 -9
10 -20 10 -11 0 -20 5 -20 10 0 6 -9 10 -20 10 -11 0 -20 5 -20 10 0 6 -13 10
-30 10 -16 0 -30 5 -30 10 0 6 -9 10 -20 10 -11 0 -20 5 -20 10 0 6 -13 10
-30 10 -16 0 -30 5 -30 10 0 6 -13 10 -30 10 -16 0 -30 5 -30 10 0 6 -13 10
-30 10 -16 0 -30 5 -30 10 0 6 -18 10 -40 10 -22 0 -40 5 -40 10 0 6 -22 10
-50 10 -27 0 -50 5 -50 10 0 6 -30 10 -70 10 -40 0 -70 4 -70 10 0 6 -80 10
-220 10 -140 0 -220 -4 -220 -10z m20 -360 c0 -27 -3 -30 -30 -30 -32 0 -40
19 -17 45 22 26 47 18 47 -15z m978 -177 c17 -17 22 -28 14 -31 -7 -2 -12 -10
-12 -19 0 -21 -25 -43 -50 -43 -30 0 -50 23 -50 60 0 62 51 80 98 33z m602
-443 c0 -5 7 -10 15 -10 27 0 65 -47 65 -80 0 -42 -58 -100 -100 -100 -39 0
-100 58 -100 95 0 14 5 25 10 25 6 0 10 7 10 16 0 8 6 22 14 30 8 8 22 14 30
14 9 0 16 5 16 10 0 6 9 10 20 10 11 0 20 -4 20 -10z m-500 -470 c0 -11 5 -20
10 -20 6 0 10 -9 10 -20 0 -11 -4 -20 -10 -20 -5 0 -10 -9 -10 -20 0 -31 -63
-28 -95 5 -31 30 -31 39 -2 70 30 32 97 35 97 5z m706 -334 c18 -19 18 -34 -1
-52 -13 -14 -17 -14 -30 0 -18 18 -19 32 -2 51 15 18 16 18 33 1z m-100 -620
c8 -8 14 -29 14 -46 0 -17 -6 -38 -14 -46 -8 -8 -29 -14 -46 -14 -17 0 -38 6
-46 14 -17 18 -18 72 -1 91 16 19 74 19 93 1z m-660 -280 c21 -21 18 -26 -16
-26 -23 0 -30 4 -30 20 0 23 25 27 46 6z m74 -176 c0 -5 9 -10 20 -10 16 0 20
-7 20 -36 0 -19 -6 -42 -14 -50 -17 -16 -46 -19 -46 -4 0 6 -9 10 -20 10 -28
0 -27 44 3 75 24 26 37 31 37 15z"/>
<path d="M3423 4335 c-13 -13 -23 -31 -23 -40 0 -8 -4 -15 -10 -15 -5 0 -10
-9 -10 -20 0 -11 -4 -20 -10 -20 -5 0 -10 -9 -10 -20 0 -11 -4 -20 -10 -20 -5
0 -10 -9 -10 -20 0 -11 -4 -20 -10 -20 -5 0 -10 -8 -10 -18 0 -10 -9 -24 -20
-32 -11 -8 -20 -22 -20 -32 0 -10 -4 -18 -10 -18 -5 0 -10 -9 -10 -20 0 -11
-4 -20 -10 -20 -5 0 -10 -9 -10 -20 0 -11 -4 -20 -10 -20 -5 0 -10 -9 -10 -20
0 -11 -4 -20 -10 -20 -5 0 -10 -9 -10 -20 0 -11 -4 -20 -10 -20 -5 0 -10 -9
-10 -20 0 -11 -4 -20 -10 -20 -5 0 -10 -9 -10 -20 0 -11 -4 -20 -10 -20 -5 0
-10 -8 -10 -18 0 -10 -9 -24 -20 -32 -11 -8 -20 -22 -20 -32 0 -10 -4 -18 -10
-18 -5 0 -10 -9 -10 -20 0 -11 -4 -20 -10 -20 -5 0 -10 -9 -10 -20 0 -11 -4
-20 -10 -20 -5 0 -10 -9 -10 -20 0 -11 -4 -20 -10 -20 -5 0 -10 -9 -10 -20 0
-11 -4 -20 -10 -20 -5 0 -10 -9 -10 -20 0 -11 -4 -20 -10 -20 -5 0 -10 -8 -10
-18 0 -10 -9 -24 -20 -32 -21 -15 -28 -70 -10 -70 6 0 10 -9 10 -20 0 -11 5
-20 10 -20 6 0 10 -9 10 -20 0 -11 5 -20 10 -20 6 0 10 -22 10 -50 0 -27 5
-50 10 -50 6 0 10 -13 10 -30 0 -16 -4 -30 -10 -30 -5 0 -10 -18 -10 -40 0
-22 -4 -40 -10 -40 -5 0 -10 -13 -10 -28 0 -16 -8 -34 -20 -42 -11 -8 -20 -20
-20 -28 0 -18 -66 -82 -85 -82 -8 0 -15 -4 -15 -10 0 -5 -9 -10 -20 -10 -13 0
-20 -7 -20 -20 0 -16 7 -20 30 -20 17 0 30 -4 30 -10 0 -5 9 -10 20 -10 11 0
20 -4 20 -10 0 -5 14 -10 30 -10 17 0 30 -4 30 -10 0 -5 14 -10 30 -10 17 0
30 -4 30 -10 0 -5 14 -10 30 -10 17 0 30 -4 30 -10 0 -5 14 -10 30 -10 17 0
30 -4 30 -10 0 -5 14 -10 30 -10 17 0 30 -4 30 -10 0 -5 14 -10 30 -10 17 0
30 -4 30 -10 0 -5 14 -10 30 -10 17 0 30 -4 30 -10 0 -5 14 -10 30 -10 17 0
30 -4 30 -10 0 -5 14 -10 30 -10 17 0 30 -4 30 -10 0 -5 14 -10 30 -10 17 0
30 -4 30 -10 0 -5 14 -10 30 -10 17 0 30 -4 30 -10 0 -5 14 -10 30 -10 17 0
30 -4 30 -10 0 -5 9 -10 20 -10 11 0 20 -4 20 -10 0 -5 14 -10 30 -10 17 0 30
-4 30 -10 0 -5 23 -10 50 -10 28 0 50 5 50 10 0 6 -4 10 -10 10 -5 0 -10 5
-10 10 0 18 32 11 51 -12 11 -11 22 -18 27 -13 4 4 1 10 -5 12 -7 3 -13 13
-13 24 0 10 -4 19 -10 19 -5 0 -10 9 -10 20 0 11 5 20 10 20 6 0 10 -9 10 -20
0 -13 7 -20 20 -20 13 0 20 7 20 18 0 10 9 24 20 32 21 15 28 50 10 50 -5 0
-10 14 -10 30 0 17 5 30 10 30 6 0 10 9 10 20 0 11 5 20 10 20 6 0 10 9 10 20
0 22 -16 27 -23 8 -2 -7 -8 -10 -12 -6 -4 4 0 15 9 24 16 15 18 15 37 -7 17
-20 22 -21 30 -9 8 11 12 12 16 3 7 -19 23 -16 23 5 0 10 9 24 20 32 11 8 20
22 20 32 0 10 5 18 10 18 6 0 10 9 10 20 0 11 -4 20 -10 20 -5 0 -10 -8 -10
-18 0 -10 -9 -24 -20 -32 -11 -8 -20 -22 -20 -32 0 -11 -7 -18 -20 -18 -11 0
-20 -4 -20 -10 0 -5 -4 -10 -10 -10 -5 0 -10 14 -10 30 0 17 -4 30 -10 30 -6
0 -10 40 -10 100 0 60 4 100 10 100 6 0 10 13 10 29 0 16 6 32 13 35 10 5 10
7 0 12 -15 7 -17 44 -3 44 6 0 10 9 10 20 0 11 -4 20 -10 20 -5 0 -10 14 -10
30 0 23 4 30 20 30 22 0 27 -16 8 -23 -8 -2 -9 -8 -4 -13 5 -5 11 -4 13 4 3 6
13 12 24 12 10 0 19 5 19 10 0 6 -9 10 -20 10 -15 0 -20 7 -20 26 0 29 31 67
38 46 2 -6 12 -12 23 -12 22 0 27 35 7 44 -10 5 -10 7 0 12 15 7 17 204 2 204
-5 0 -10 9 -10 20 0 11 -4 20 -10 20 -5 0 -10 5 -10 10 0 6 9 10 20 10 11 0
20 5 20 10 0 6 -4 10 -10 10 -5 0 -10 7 -10 16 0 19 -28 49 -38 40 -3 -4 0
-11 8 -16 8 -5 11 -12 8 -16 -12 -11 -38 23 -38 50 0 27 15 36 23 14 2 -7 8
-10 12 -6 10 9 -19 38 -39 38 -9 0 -16 -4 -16 -10 0 -5 -4 -10 -10 -10 -14 0
-12 37 3 44 10 5 10 7 0 12 -7 3 -13 14 -13 25 0 10 -7 19 -15 19 -25 0 -65
46 -65 75 0 26 15 34 23 13 2 -7 8 -10 12 -6 4 4 -11 25 -34 47 -22 22 -41 47
-41 55 0 9 -4 16 -10 16 -14 0 -12 -38 3 -43 6 -2 9 -8 5 -12 -4 -4 -28 14
-53 40 -26 25 -44 49 -40 53 4 4 10 1 12 -5 5 -15 43 -17 43 -3 0 6 -9 10 -20
10 -11 0 -20 5 -20 10 0 14 -38 12 -43 -2 -2 -7 -8 -10 -12 -6 -5 5 2 16 13
27 26 22 28 31 6 31 -9 0 -29 14 -44 30 -27 29 -60 40 -60 20 0 -15 -29 -12
-46 4 -19 20 -18 26 6 26 11 0 20 5 20 10 0 6 -8 10 -18 10 -10 0 -24 9 -32
20 -8 12 -26 20 -42 20 -15 0 -28 5 -28 10 0 19 -55 9 -77 -15z m84 -10 c8 -9
12 -19 8 -23 -4 -4 -10 -1 -12 6 -3 6 -13 12 -24 12 -10 0 -19 5 -19 10 0 15
30 12 47 -5z m188 -110 c29 -28 31 -35 10 -35 -15 0 -65 42 -65 55 0 14 34 2
55 -20z m-95 -105 c0 -5 9 -10 20 -10 13 0 20 -7 20 -19 0 -11 5 -21 12 -23 8
-3 2 -15 -17 -33 -18 -19 -30 -25 -33 -17 -2 7 -17 12 -33 12 -22 0 -29 5 -29
20 0 11 -4 20 -10 20 -14 0 -12 28 3 45 14 16 67 20 67 5z m280 -100 c0 -5 -4
-10 -10 -10 -5 0 -10 5 -10 10 0 6 5 10 10 10 6 0 10 -4 10 -10z m-400 -40 c0
-33 -21 -40 -46 -16 -24 25 -17 46 16 46 27 0 30 -3 30 -30z m346 -464 c8 -8
14 -22 14 -30 0 -9 5 -16 10 -16 6 0 10 -21 10 -46 0 -44 -16 -74 -40 -74 -16
0 -60 47 -60 65 0 8 -4 15 -10 15 -5 0 -10 14 -10 30 0 17 5 30 10 30 6 0 10
9 10 20 0 24 43 28 66 6z m-420 -180 c22 -23 18 -66 -6 -66 -13 0 -20 7 -20
19 0 11 -5 21 -12 23 -9 3 -8 9 2 21 18 20 18 20 36 3z m514 -666 c0 -11 -4
-20 -10 -20 -5 0 -10 9 -10 20 0 11 5 20 10 20 6 0 10 -9 10 -20z"/>
<path d="M3920 3950 c0 -5 9 -10 20 -10 11 0 20 5 20 10 0 6 -9 10 -20 10 -11
0 -20 -4 -20 -10z"/>
<path d="M4120 3540 c0 -11 5 -20 10 -20 6 0 10 9 10 20 0 11 -4 20 -10 20 -5
0 -10 -9 -10 -20z"/>
<path d="M4120 3470 c0 -5 5 -10 10 -10 6 0 10 5 10 10 0 6 -4 10 -10 10 -5 0
-10 -4 -10 -10z"/>
<path d="M4120 3430 c0 -5 5 -10 10 -10 6 0 10 -18 10 -40 0 -22 5 -40 10 -40
15 0 12 70 -4 86 -17 16 -26 18 -26 4z"/>
<path d="M2413 3345 c-7 -8 -13 -21 -13 -30 0 -8 -4 -15 -10 -15 -5 0 -10 -18
-10 -40 0 -30 4 -40 16 -40 23 0 44 25 44 54 0 14 5 26 10 26 6 0 10 14 10 30
0 33 -25 41 -47 15z"/>
<path d="M4140 3240 c0 -33 -4 -60 -10 -60 -5 0 -10 -18 -10 -40 0 -22 5 -40
10 -40 6 0 10 18 10 40 0 22 5 40 10 40 6 0 10 27 10 60 0 33 -4 60 -10 60 -6
0 -10 -27 -10 -60z"/>
<path d="M4020 3220 c0 -11 -4 -20 -10 -20 -5 0 -10 -9 -10 -20 0 -13 7 -20
20 -20 11 0 20 5 20 10 0 6 -4 10 -10 10 -5 0 -10 5 -10 10 0 6 9 10 20 10 13
0 20 7 20 20 0 13 -7 20 -20 20 -13 0 -20 -7 -20 -20z"/>
<path d="M2380 3144 c0 -38 18 -64 44 -64 11 0 16 9 16 30 0 17 -4 30 -10 30
-5 0 -10 9 -10 20 0 13 -7 20 -20 20 -16 0 -20 -7 -20 -36z"/>
<path d="M4060 3171 c0 -5 6 -12 13 -15 10 -5 10 -7 0 -12 -13 -6 -19 -44 -7
-44 10 0 34 28 34 40 0 12 -24 40 -34 40 -3 0 -6 -4 -6 -9z"/>
<path d="M4000 3110 c0 -16 -4 -30 -10 -30 -5 0 -10 -18 -10 -40 0 -22 5 -40
10 -40 6 0 10 18 10 40 0 22 5 40 10 40 6 0 10 14 10 30 0 17 -4 30 -10 30 -5
0 -10 -13 -10 -30z"/>
<path d="M1683 3055 c-24 -25 -31 -55 -13 -55 6 0 10 -13 10 -30 0 -16 5 -30
10 -30 6 0 10 -13 10 -30 0 -16 5 -30 10 -30 6 0 10 -9 10 -20 0 -11 5 -20 10
-20 6 0 10 -9 10 -20 0 -11 5 -20 10 -20 6 0 10 -9 10 -20 0 -11 5 -20 10 -20
6 0 10 -13 10 -28 0 -16 8 -34 20 -42 11 -8 20 -22 20 -32 0 -10 5 -18 10 -18
6 0 10 -9 10 -20 0 -11 5 -20 10 -20 6 0 10 -8 10 -18 0 -10 9 -24 20 -32 11
-8 20 -21 20 -30 0 -9 9 -22 20 -30 11 -8 20 -21 20 -28 0 -7 18 -31 40 -52
22 -21 40 -43 40 -49 0 -18 193 -206 198 -193 2 7 10 12 19 12 41 0 58 65 23
90 -11 8 -20 22 -20 32 0 11 -7 18 -20 18 -11 0 -20 7 -20 16 0 8 -27 42 -60
74 -33 32 -60 65 -60 72 0 8 -9 20 -20 28 -11 8 -20 21 -20 30 0 9 -9 22 -20
30 -11 8 -20 21 -20 30 0 9 -9 22 -20 30 -11 8 -20 22 -20 32 0 10 -4 18 -10
18 -5 0 -10 9 -10 20 0 11 -4 20 -10 20 -5 0 -10 8 -10 18 0 10 -9 24 -20 32
-11 8 -20 22 -20 32 0 10 -4 18 -10 18 -5 0 -10 14 -10 30 0 17 -4 30 -10 30
-5 0 -10 9 -10 20 0 11 -4 20 -10 20 -5 0 -10 14 -10 30 0 17 -4 30 -10 30 -5
0 -10 9 -10 20 0 11 -4 20 -10 20 -5 0 -10 7 -10 16 0 45 -61 57 -97 19z"/>
<path d="M4120 3062 c0 -10 -9 -24 -20 -32 -11 -8 -20 -20 -20 -28 0 -18 29
-46 38 -37 4 4 1 10 -5 12 -20 7 -15 37 7 53 21 15 28 50 10 50 -5 0 -10 -8
-10 -18z"/>
<path d="M2473 3025 c-20 -22 -16 -45 7 -45 11 0 20 -4 20 -10 0 -5 14 -10 30
-10 21 0 30 5 30 16 0 20 -24 44 -44 44 -9 0 -16 5 -16 10 0 14 -13 12 -27 -5z"/>
<path d="M4040 2970 c0 -5 5 -10 10 -10 6 0 10 5 10 10 0 6 -4 10 -10 10 -5 0
-10 -4 -10 -10z"/>
<path d="M4020 2910 c0 -5 5 -10 10 -10 6 0 10 5 10 10 0 6 -4 10 -10 10 -5 0
-10 -4 -10 -10z"/>
<path d="M3960 2750 c0 -16 5 -30 10 -30 6 0 10 9 10 20 0 11 5 20 10 20 6 0
10 5 10 10 0 6 -9 10 -20 10 -16 0 -20 -7 -20 -30z"/>
<path d="M4000 2730 c0 -5 5 -10 10 -10 6 0 10 5 10 10 0 6 -4 10 -10 10 -5 0
-10 -4 -10 -10z"/>
<path d="M2900 2520 l0 -60 30 0 c17 0 30 -4 30 -10 0 -5 14 -10 30 -10 17 0
30 -4 30 -10 0 -5 14 -10 30 -10 17 0 30 -4 30 -10 0 -5 9 -10 20 -10 17 0 20
7 20 46 0 52 -16 74 -54 74 -14 0 -26 5 -26 10 0 6 -9 10 -20 10 -11 0 -20 5
-20 10 0 6 -13 10 -30 10 -16 0 -30 5 -30 10 0 6 -9 10 -20 10 -18 0 -20 -7
-20 -60z"/>
<path d="M3180 2434 c0 -47 16 -74 44 -74 9 0 16 -4 16 -10 0 -5 14 -10 30
-10 17 0 30 -4 30 -10 0 -5 14 -10 30 -10 17 0 30 -4 30 -10 0 -5 14 -10 30
-10 17 0 30 -4 30 -10 0 -5 14 -10 30 -10 17 0 30 -4 30 -10 0 -5 14 -10 30
-10 17 0 30 -4 30 -10 0 -5 14 -10 30 -10 17 0 30 -4 30 -10 0 -5 9 -10 20
-10 11 0 20 -4 20 -10 0 -5 14 -10 30 -10 17 0 30 -4 30 -10 0 -5 14 -10 30
-10 17 0 30 -4 30 -10 0 -5 14 -10 30 -10 17 0 30 -4 30 -10 0 -5 18 -10 40
-10 38 0 40 2 40 30 0 17 -4 30 -10 30 -5 0 -10 9 -10 20 0 13 -7 20 -19 20
-11 0 -22 6 -25 13 -5 10 -7 10 -12 0 -9 -20 -24 -15 -24 7 0 13 -7 20 -20 20
-11 0 -20 5 -20 10 0 6 -13 10 -30 10 -16 0 -30 5 -30 10 0 6 -13 10 -30 10
-16 0 -30 5 -30 10 0 6 -13 10 -30 10 -16 0 -30 5 -30 10 0 6 -13 10 -30 10
-16 0 -30 5 -30 10 0 6 -13 10 -30 10 -16 0 -30 5 -30 10 0 6 -13 10 -30 10
-16 0 -30 5 -30 10 0 6 -13 10 -30 10 -16 0 -30 5 -30 10 0 6 -13 10 -30 10
-16 0 -30 5 -30 10 0 6 -13 10 -30 10 -16 0 -30 5 -30 10 0 6 -9 10 -20 10
-17 0 -20 -7 -20 -46z m660 -224 c0 -5 -4 -10 -10 -10 -5 0 -10 5 -10 10 0 6
5 10 10 10 6 0 10 -4 10 -10z m40 -30 c0 -13 -7 -20 -20 -20 -23 0 -25 5 -7
25 17 20 27 18 27 -5z"/>
</g>
</svg>
